<?xml version="1.0" encoding="utf-8"?>
<!-- Generator: Adobe Illustrator 23.0.2, SVG Export Plug-In . SVG Version: 6.00 Build 0)  -->
<svg version="1.1" id="Capa_1" xmlns="http://www.w3.org/2000/svg" xmlns:xlink="http://www.w3.org/1999/xlink" x="0px" y="0px"
	 viewBox="0 0 58 58" style="enable-background:new 0 0 58 58;" xml:space="preserve">
<style type="text/css">
	.st0{fill:#F4BF1A;}
	.st1{fill:#FFD949;}
	.st2{fill:#DCA815;}
	.st3{fill:#D1D4D2;}
	.st4{fill:#FFFFFF;}
	.st5{font-family:'ArialRoundedMTBold';}
	.st6{font-size:10px;}
	.st7{fill:none;}
</style>
<g id="XMLID_90_">
	<path id="XMLID_122_" class="st0" d="M43.9,44.2C33.8,54.3,18.8,56,9.1,48.6c0.6,0.8,1.3,1.6,2,2.3c9.6,9.6,26.2,8.5,37.1-2.5
		c10.9-10.9,12-27.6,2.5-37.1c-0.7-0.7-1.5-1.4-2.3-2C55.7,19.1,54,34.1,43.9,44.2"/>
	<path id="XMLID_121_" class="st1" d="M46.4,7.1c9.6,9.6,8.5,26.2-2.5,37.1s-27.6,12-37.1,2.5S-1.7,20.5,9.3,9.6S36.8-2.5,46.4,7.1"
		/>
	<path id="XMLID_89_" class="st0" d="M23.1,49.2c-5.2,0-10-1.9-13.5-5.3c-8-8-6.9-22.1,2.5-31.5c5-5,11.5-7.8,18-7.8
		c5.2,0,10,1.9,13.5,5.3c8,8,6.9,22.1-2.5,31.5C36.1,46.3,29.6,49.2,23.1,49.2"/>
	<path id="XMLID_119_" class="st2" d="M44.6,43.5l4.3,4.3c0.5-0.5,0.9-1,1.3-1.5L45.9,42C45.5,42.5,45.1,43,44.6,43.5"/>
	<path id="XMLID_118_" class="st2" d="M40.9,46.8l4.3,4.3c0.5-0.4,1-0.8,1.5-1.3l-4.3-4.3C41.9,46,41.4,46.4,40.9,46.8"/>
	<path id="XMLID_117_" class="st2" d="M47.7,39.5l4.3,4.3c0.4-0.6,0.8-1.1,1.1-1.7l-4.2-4.2C48.5,38.4,48.1,39,47.7,39.5"/>
	<path id="XMLID_116_" class="st2" d="M50.3,35l4.3,4.3c0.3-0.7,0.6-1.3,0.8-2L51.1,33C50.9,33.7,50.6,34.4,50.3,35"/>
	<path id="XMLID_115_" class="st2" d="M36.6,49.6l4.3,4.3c0.6-0.3,1.2-0.7,1.8-1l-4.3-4.3C37.8,49,37.2,49.3,36.6,49.6"/>
	<path id="XMLID_114_" class="st2" d="M31.7,51.8l4.3,4.3c0.7-0.2,1.4-0.5,2.1-0.8L33.8,51C33.1,51.3,32.4,51.5,31.7,51.8"/>
	<path id="XMLID_113_" class="st2" d="M24.6,53.1l4.3,4.3c0.9,0,1.7-0.1,2.6-0.3l-4.3-4.3C26.3,53,25.4,53.1,24.6,53.1"/>
	<path id="XMLID_112_" class="st2" d="M16.7,52.3l4.3,4.3c1.1,0.3,2.3,0.5,3.5,0.7L20.2,53C19,52.9,17.8,52.6,16.7,52.3"/>
	<path id="XMLID_111_" class="st2" d="M52.4,28.6l4.3,4.3c0.2-0.8,0.3-1.6,0.4-2.5l-4.3-4.3C52.7,27,52.5,27.8,52.4,28.6"/>
	<path id="XMLID_88_" class="st2" d="M57.1,26.3c-0.1-1.1-0.2-2.1-0.4-3.2l-4.3-4.3c0.2,1.1,0.4,2.1,0.4,3.2L57.1,26.3z"/>
	<path id="XMLID_109_" class="st3" d="M5.7,57c-2.8,0-5-2.2-5-5c0-0.6,0.4-1,1-1s1,0.4,1,1c0,1.7,1.3,3,3,3c0.6,0,1,0.4,1,1
		S6.3,57,5.7,57"/>
	<path id="XMLID_108_" class="st3" d="M55.7,7c-0.6,0-1-0.4-1-1c0-2.2-1.3-4-3-4c-0.6,0-1-0.4-1-1s0.4-1,1-1c2.8,0,5,2.7,5,6
		C56.7,6.6,56.3,7,55.7,7"/>
	<path id="XMLID_107_" class="st3" d="M45.7,56c-0.6,0-1-0.4-1-1s0.4-1,1-1c5,0,9-4,9-9c0-0.6,0.4-1,1-1s1,0.4,1,1
		C56.7,51.1,51.8,56,45.7,56"/>
	<path id="XMLID_106_" class="st3" d="M52.7,58c-0.6,0-1-0.4-1-1s0.4-1,1-1c1.6,0,3-0.9,3-2c0-0.6,0.4-1,1-1s1,0.4,1,1
		C57.7,56.2,55.5,58,52.7,58"/>
	<text transform="matrix(0.9049 0 0 1 12.458 26.1514)" class="st4 st5 st6">Money </text>
	<text transform="matrix(0.9049 0 0 1 12.458 26.0998)" class="st7 st5 st6">Money </text>
	<text transform="matrix(0.9049 0 0 1 19.0635 38.1514)" class="st4 st5 st6">App</text>
	<text transform="matrix(0.9049 0 0 1 19.0635 38.1514)" class="st7 st5 st6">App</text>
</g>
</svg>
