<svg width="785" height="769" viewBox="0 0 785 769" xmlns="http://www.w3.org/2000/svg"><title>Page 1</title><g fill-rule="evenodd" opacity=".089"><path d="M105.413 532.913c1.802 5.297-6.162 8.036-7.964 2.738-1.838-5.333 6.126-8.072 7.964-2.738m36.619 70.46c4.613 7.028-5.946 13.947-10.56 6.92-4.612-7.028 5.947-13.948 10.56-6.92m57.913-52.838c4.613 7.027-5.947 13.983-10.56 6.955-4.613-7.064 5.947-13.983 10.56-6.955m88.775-10.952c6.162 9.406-7.893 18.632-14.056 9.262-6.163-9.406 7.893-18.632 14.055-9.262m56.907 37.8c11.821 7.532.505 25.3-11.316 17.768-11.858-7.569-.54-25.3 11.316-17.768m66.521 10.813c16.687 2.415 13.047 27.427-3.64 24.975-16.65-2.415-13.01-27.427 3.64-24.975m81.099 6.412c5.37 18.921-22.958 26.994-28.364 8.109-5.37-18.885 22.958-26.994 28.364-8.109m58.272-64.223c15.28 18.091-11.857 41.013-27.138 22.921-15.28-18.092 11.858-41.013 27.138-22.921m-303.163 76.623c8.721 7.064-1.874 20.146-10.596 13.083-8.721-7.028 1.838-20.147 10.596-13.083m62.738 38.602c13.083 5.046 5.514 24.688-7.568 19.642-13.083-5.046-5.515-24.687 7.568-19.642m70.967 17.438c16.795.937 15.354 26.164-1.44 25.192-16.796-.972-15.354-26.165 1.44-25.192m90.168 5.48c4.938 18.993-23.57 26.418-28.507 7.388-4.937-18.993 23.57-26.38 28.507-7.388m71.9-32.042c12.001 18.993-16.434 36.976-28.435 18.02-12.002-18.958 16.434-36.977 28.435-18.02m58.208-52.977c19.39 16.182-4.865 45.302-24.255 29.12s4.866-45.266 24.255-29.12m38.99-69.446c27.246 10.992 10.74 51.826-16.47 40.834-27.21-10.992-10.74-51.826 16.47-40.834M194.575 662.227c8.29 7.604-3.063 20.002-11.353 12.434-8.289-7.568 3.064-20.002 11.353-12.434m65.017 43.787c12.362 6.632 2.451 25.192-9.946 18.56-12.362-6.63-2.415-25.191 9.946-18.56m73.312 26.203c16.361 4.036 10.307 28.544-6.055 24.506-16.326-4.036-10.272-28.544 6.055-24.506m91.828 21.875c.144 19.642-29.3 19.857-29.445.216-.144-19.641 29.337-19.821 29.445-.216m81.624-14.494c5.658 21.732-26.922 30.237-32.58 8.505-5.694-21.696 26.886-30.201 32.58-8.505m75.294-34.672c12.218 22.092-20.902 40.436-33.12 18.344-12.217-22.092 20.904-40.437 33.12-18.344m64.15-52.58c19.21 20.434-11.46 49.266-30.67 28.831-19.208-20.47 11.426-49.266 30.67-28.831m48.761-67.139c26.02 16.614 1.153 55.645-24.867 39.067-26.021-16.615-1.154-55.645 24.867-39.067m30.852-79.143c34.49 11.353 17.443 63.07-17.01 51.718-34.491-11.353-17.444-63.07 17.01-51.718"/><path d="M731.54 510.391c7.244 4.325.792 15.173-6.452 10.849-7.208-4.29-.756-15.137 6.452-10.849m-72.878-28.868c7.244 4.288.829 15.172-6.415 10.848-7.244-4.289-.83-15.137 6.415-10.848m-45.872-75.72c9.658 5.73 1.044 20.219-8.614 14.452-9.623-5.73-1.01-20.182 8.613-14.452m9.116-74.031c13.947 1.586 11.568 22.49-2.379 20.903-13.947-1.586-11.569-22.489 2.379-20.903m-7.068-62.996c5.118 16.038-18.92 23.75-24.038 7.712-5.154-16.037 18.92-23.714 24.038-7.712m-33.011-66.853c13.119 14.596-8.793 34.31-21.912 19.714-13.119-14.632 8.794-34.31 21.912-19.714M501.17 167.5c21.661 9.587 7.317 42.094-14.343 32.508-21.696-9.551-7.352-42.059 14.344-32.508m188.454 241.652c10.956 2.487 7.208 18.921-3.748 16.398-10.956-2.487-7.172-18.921 3.748-16.398m18.055-68.836c1.226 13.983-19.749 15.785-20.974 1.802-1.19-13.983 19.785-15.785 20.975-1.802m-13.12-79.364c6.487 15.533-16.794 25.264-23.317 9.767-6.487-15.533 16.794-25.3 23.317-9.767m-37.154-72.075c12.758 14.92-9.623 34.058-22.38 19.137-12.759-14.92 9.622-34.058 22.38-19.137m-57.922-57.701c19.101 11.785 1.478 40.437-17.66 28.688-19.1-11.784-1.441-40.436 17.66-28.688M526.11 93.727c24.506 6.055 15.496 42.815-9.047 36.797-24.506-6.018-15.461-42.815 9.046-36.797m-58.531 6.2c2.055 29.3-41.878 32.4-43.932 3.1-2.054-29.265 41.879-32.364 43.932-3.1m295.635 333.952c10.776 3.171 6.019 19.317-4.757 16.145-10.776-3.172-6.019-19.317 4.757-16.145m11.284-82.067c14.019.504 13.226 21.551-.793 21.01-14.02-.54-13.227-21.551.793-21.01m5.157-72.582c3.532 16.47-21.155 21.767-24.651 5.297-3.532-16.434 21.155-21.732 24.651-5.298m-25.519-80.157c8.721 17.587-17.66 30.67-26.418 13.083-8.721-17.587 17.66-30.706 26.418-13.083m-44.84-71.862c14.632 17.046-10.92 38.995-25.552 21.947-14.632-17.01 10.92-38.959 25.552-21.948m-61.548-58.891c20.687 14.488-1.08 45.519-21.732 31.03-20.687-14.523 1.081-45.517 21.732-31.03m-74.64-42.163c26.238 9.983 11.317 49.303-14.92 39.355-26.238-9.948-11.281-49.303 14.92-39.355m-83.22-22.56c30.67 3.496 25.444 49.519-5.226 46.023-30.67-3.496-25.444-49.519 5.226-46.023M433.524 23.6c4.938 35.966-49.014 43.355-53.916 7.387-4.937-35.967 49.015-43.355 53.916-7.388"/><path d="M424.658 25.906c5.442 1.37 3.388 9.55-2.054 8.18-5.442-1.369-3.388-9.513 2.054-8.18m-74.788-5.951c0 8.433-12.614 8.433-12.65.036 0-8.433 12.615-8.47 12.65-.036m12.622 77.343c.036 8.433-12.578 8.47-12.614.036-.036-8.397 12.578-8.433 12.614-.036m-37.2 78.247c.036 11.245-16.794 11.281-16.83.072-.037-11.245 16.794-11.28 16.83-.072m-65.875 21.553c5.802 12.758-13.37 21.443-19.173 8.685-5.802-12.794 13.37-21.48 19.173-8.685m-51.787 45.946c12.65 11.136-4.036 30.057-16.686 18.957-12.614-11.136 4.072-30.093 16.686-18.957M167.8 297.1c18.778 5.803 10.093 33.95-8.685 28.148-18.777-5.803-10.091-33.95 8.686-28.148m28.721 92.225c2.92 23.534-32.364 27.895-35.247 4.397-2.92-23.498 32.328-27.894 35.247-4.397m91.367-286.584c3.46 10.668-12.542 15.858-16.002 5.19-3.46-10.668 12.542-15.858 16.002-5.19m-69.667 27.429c8.217 11.354-8.866 23.679-17.047 12.29-8.217-11.353 8.83-23.678 17.047-12.29m-58.383 46.953c13.551 9.983-1.442 30.31-14.993 20.326-13.551-9.983 1.442-30.31 14.993-20.326m-41.804 62.249c18.632 6.271 9.262 34.202-9.37 27.966-18.633-6.27-9.262-34.201 9.37-27.966m-21.377 71.964c22.453.289 22.02 33.986-.433 33.697-22.453-.288-22.02-33.95.433-33.697m24.689 87.723c7.424 24.147-28.796 35.247-36.184 11.1-7.424-24.11 28.76-35.247 36.184-11.1m29.838 63.651c16.794 24.04-19.318 49.266-36.113 25.193-16.794-24.074 19.281-49.266 36.113-25.193M271.632 27.926c2.775 10.848-13.514 15.065-16.325 4.18-2.775-10.847 13.514-15.064 16.325-4.18m-74.095 26.489c6.775 12.325-11.677 22.416-18.416 10.127-6.776-12.29 11.676-22.417 18.416-10.127M132.012 97.98c11.497 12.326-6.991 29.517-18.452 17.228-11.497-12.325 6.992-29.553 18.452-17.227m-53.188 58.023c16.542 10.596.612 35.39-15.894 24.796-16.543-10.632-.613-35.391 15.894-24.796m-37.662 69.132c21.264 7.1 10.632 39.031-10.667 31.93-21.3-7.099-10.631-39.03 10.667-31.93m-20.006 76.181c25.192 1.838 22.453 39.608-2.739 37.77-25.192-1.838-22.453-39.608 2.74-37.77m23.317 95.795C49.376 424.72 7.966 432.143 3.03 404.5c-4.938-27.606 36.508-34.995 41.445-7.388m24.071 71.291c12.758 28.111-29.409 47.248-42.167 19.137-12.758-28.111 29.409-47.212 42.167-19.137m42.209 61.483c22.67 28.327-19.821 62.35-42.527 34.022-22.669-28.327 19.822-62.349 42.527-34.022"/></g></svg>